# xmcd
#
# Track frame offsets:
#       750
#       16565
#       35595
#       54210
#       69642
#       89125
#       105450
#       129405
#       154480
#       176112
#       195397
#       214687
#       233450
#       250855
#       266602
#       283847
#       309542
#
# Disc length: 4504 seconds
#
# Revision: 0
# Processed by: cddbd v1.5.2PL0 Copyright (c) Steve Scherf et al.
# Submitted via: WaveLab 4.01
#
DISCID=e8118e11
DTITLE=Celine Dion - 
DYEAR=1900
DGENRE=
TTITLE0=Titel 01
TTITLE1=Titel 02
TTITLE2=Titel 03
TTITLE3=Titel 04
TTITLE4=Titel 05
TTITLE5=Titel 06
TTITLE6=Titel 07
TTITLE7=Titel 08
TTITLE8=Titel 09
TTITLE9=Titel 10
TTITLE10=Titel 11
TTITLE11=Titel 12
TTITLE12=Titel 13
TTITLE13=Titel 14
TTITLE14=Titel 15
TTITLE15=Titel 16
TTITLE16=Titel 17
EXTD=
EXTT0=
EXTT1=
EXTT2=
EXTT3=
EXTT4=
EXTT5=
EXTT6=
EXTT7=
EXTT8=
EXTT9=
EXTT10=
EXTT11=
EXTT12=
EXTT13=
EXTT14=
EXTT15=
EXTT16=
PLAYORDER=
